
Plot:

Black Ops operative Malcolm Gray returns home after a botched mission in Eastern Europe. Holed up in a Brooklyn motel room, he is torn between retribution and personal salvation as he mentally unravels. When the walls close in, his story may be all he can leave behind


Video

Codec ID/Hint : XviD
Duration : 1h 32mn
Bit rate : 940 Kbps
Width : 656 pixels
Height : 352 pixels
Display aspect ratio : 1.864
Frame rate : 23.976 fps
Color space : YUV
Chroma subsampling : 4:2:0
Bit depth : 8 bits
Scan type : Progressive
Bits/(Pixel*Frame) : 0.170
Stream size : 624 MiB (89%)
Writing library : XviD 57


Audio
ID : 1
Format : MPEG Audio
Format version : Version 1
Format profile : Layer 3
Mode : Joint stereo
Mode extension : MS Stereo
Codec ID : 55
Codec ID/Hint : MP3
Duration : 1h 32mn
Bit rate mode : Variable
Bit rate : 102 Kbps
Nominal bit rate : 112 Kbps
Channel(s) : 2 channels
Sampling rate : 48.0 KHz
Stream size : 67.5 MiB (10%)
Alignment : Aligned on interleaves
Interleave, duration : 24 ms (0.58 video frame)
Interleave, preload duration : 539 ms
Writing library : LAME3.97 

IMDB 
http://www.imdb.com/title/tt1436034/